<svg xmlns="http://www.w3.org/2000/svg" width="19.2" height="20.3"><style>.st0,.st3{fill:none}.st3{stroke:#010101;stroke-width:.75;stroke-linecap:round}</style><path d="M0 0h19.2v20.3H0z" class="st0"/><path d="M0 0h19.2v20.3H0z" class="st0"/><path fill="#fff" d="M6.1 7.2c.5-.2 1.5 0 1.7.5.2.5.4 1.2.4 1.1 0-.4 0-6.2.1-6.6.2-.3.4-.6.7-.7.3-.1.7-.1 1-.1.3.1.6.3.8.5.4.6.4 6.9.4 6.8.1-.3.1-1.2.3-1.6.1-.2.5-.4.7-.5.3-.1.7-.1 1 0 .2 0 .6.3.7.5.2.3.3 1.3.4 1.7 0 .1.1-.4.3-.7.4-.6 1.8-.8 1.9.6V11c0 .4-.1 1.3-.2 1.7-.1.3-.4 1-.7 1.4 0 0-1.1 1.2-1.2 1.8-.1.6-.1.6-.1 1s.1.9.1.9-.8.1-1.2 0c-.4-.1-.9-.8-1-1.1-.2-.3-.5-.3-.7 0-.2.4-.7 1.1-1.1 1.1-.7.1-2.1 0-3.1 0 0 0 .2-1-.2-1.4L6 15.3l-.8-.9c-.3-.4-1-.9-1.2-2-.2-.9-.2-1.4 0-1.8.2-.4.7-.6.9-.6.2 0 .7 0 .9.1.2.1.3.2.5.4.2.3.3.5.2.1-.1-.3-.3-.6-.4-1-.5-.2-.8-.7-.8-1.3 0-.3.1-.8.8-1.1"/><path fill="none" stroke="#010101" stroke-linejoin="round" stroke-width=".75" d="M6.1 7.2c.5-.2 1.5 0 1.7.5.2.5.4 1.2.4 1.1 0-.4 0-6.2.1-6.6.2-.3.4-.6.7-.7.3-.1.7-.1 1-.1.3.1.6.3.8.5.4.6.4 6.9.4 6.8.1-.3.1-1.2.3-1.6.1-.2.5-.4.7-.5.3-.1.7-.1 1 0 .2 0 .6.3.7.5.2.3.3 1.3.4 1.7 0 .1.1-.4.3-.7.4-.6 1.8-.8 1.9.6V11c0 .4-.1 1.3-.2 1.7-.1.3-.4 1-.7 1.4 0 0-1.1 1.2-1.2 1.8-.1.6-.1.6-.1 1s.1.9.1.9-.8.1-1.2 0c-.4-.1-.9-.8-1-1.1-.2-.3-.5-.3-.7 0-.2.4-.7 1.1-1.1 1.1-.7.1-2.1 0-3.1 0 0 0 .2-1-.2-1.4L6 15.3l-.8-.9c-.3-.4-1-.9-1.2-2-.2-.9-.2-1.4 0-1.8.2-.4.7-.6.9-.6.2 0 .7 0 .9.1.2.1.3.2.5.4.2.3.3.5.2.1-.1-.3-.3-.6-.4-1-.5-.2-.8-.7-.8-1.3 0-.3.1-.8.8-1.1z"/><path d="M13.1 14.9v-3.4M11.1 14.9v-3.4M9.1 11.5v3.4" class="st3"/></svg>