<svg xmlns="http://www.w3.org/2000/svg" width="19.2" height="20.3"><style>.st2{fill:none;stroke:#000;stroke-width:.75;stroke-linecap:round}</style><path fill="#fff" d="M4.9 14.6c-.3-.4-.6-1.1-1.2-2-.3-.5-1.2-1.5-1.5-1.9-.2-.4-.2-.6-.1-1 .1-.6.7-1.1 1.4-1.1.5 0 1 .4 1.4.7.2.2.5.6.7.8.2.2.2.3.4.5.2.3.3.5.2.1-.1-.5-.2-1.3-.4-2.1-.1-.6-.2-.7-.3-1.1-.1-.5-.2-.8-.3-1.3-.1-.3-.2-1.1-.3-1.5-.1-.5-.1-1.4.3-1.8.3-.3.9-.4 1.3-.2.5.3.8 1 .9 1.3.2.5.4 1.2.5 2 .2 1 .5 2.5.5 2.8 0-.4-.1-1.1 0-1.5.1-.3.3-.7.7-.8.3-.1.6-.1.9-.1.3.1.6.3.8.5.4.6.4 1.9.4 1.8.1-.4.1-1.2.3-1.6.1-.2.5-.4.7-.5.3-.1.7-.1 1 0 .2 0 .6.3.7.5.2.3.3 1.3.4 1.7 0 .1.1-.4.3-.7.4-.6 1.8-.8 1.9.6V11c0 .4-.1 1.3-.2 1.7-.1.3-.4 1-.7 1.4 0 0-1.1 1.2-1.2 1.8-.1.6-.1.6-.1 1s.1.9.1.9-.8.1-1.2 0c-.4-.1-.9-.8-1-1.1-.2-.3-.5-.3-.7 0-.2.4-.7 1.1-1.1 1.1-.7.1-2.1 0-3.1 0 0 0 .2-1-.2-1.4L6 15.3l-1.1-.7z"/><path fill="none" stroke="#000" stroke-linecap="round" stroke-linejoin="round" stroke-width=".75" d="M4.9 14.6c-.3-.4-.6-1.1-1.2-2-.3-.5-1.2-1.5-1.5-1.9-.2-.4-.2-.6-.1-1 .1-.6.7-1.1 1.4-1.1.5 0 1 .4 1.4.7.2.2.5.6.7.8.2.2.2.3.4.5.2.3.3.5.2.1-.1-.5-.2-1.3-.4-2.1-.1-.6-.2-.7-.3-1.1-.1-.5-.2-.8-.3-1.3-.1-.3-.2-1.1-.3-1.5-.1-.5-.1-1.4.3-1.8.3-.3.9-.4 1.3-.2.5.3.8 1 .9 1.3.2.5.4 1.2.5 2 .2 1 .5 2.5.5 2.8 0-.4-.1-1.1 0-1.5.1-.3.3-.7.7-.8.3-.1.6-.1.9-.1.3.1.6.3.8.5.4.6.4 1.9.4 1.8.1-.4.1-1.2.3-1.6.1-.2.5-.4.7-.5.3-.1.7-.1 1 0 .2 0 .6.3.7.5.2.3.3 1.3.4 1.7 0 .1.1-.4.3-.7.4-.6 1.8-.8 1.9.6V11c0 .4-.1 1.3-.2 1.7-.1.3-.4 1-.7 1.4 0 0-1.1 1.2-1.2 1.8-.1.6-.1.6-.1 1s.1.9.1.9-.8.1-1.2 0c-.4-.1-.9-.8-1-1.1-.2-.3-.5-.3-.7 0-.2.4-.7 1.1-1.1 1.1-.7.1-2.1 0-3.1 0 0 0 .2-1-.2-1.4L6 15.3l-1.1-.7z"/><path d="M13.2 14.9v-3.4M11.2 14.9l-.1-3.4M9.2 11.5v3.4" class="st2"/><path fill="none" d="M0 0h19.2v20.3H0z"/></svg>